<?xml version="1.0" standalone="no"?>
<!DOCTYPE svg PUBLIC "-//W3C//DTD SVG 20010904//EN"
 "http://www.w3.org/TR/2001/REC-SVG-20010904/DTD/svg10.dtd">
<svg version="1.0" xmlns="http://www.w3.org/2000/svg"
 width="240" height="74" viewBox="0 0 7486.000000 2133.000000"
 preserveAspectRatio="xMidYMid meet">

<g transform="translate(0.000000,2133.000000) scale(0.100000,-0.100000)"
fill="#000000" stroke="none">
<path d="M10620 20664 c-14 -3 -44 -12 -67 -20 -24 -9 -2073 -1227 -4555
-2708 -3741 -2232 -4523 -2702 -4570 -2748 -47 -46 -60 -66 -77 -122 l-21 -68
0 -7037 c0 -6393 1 -7042 16 -7091 31 -105 103 -183 203 -221 l56 -22 8960 17
c4928 9 9008 18 9066 20 89 3 115 8 168 31 87 40 154 115 181 203 20 67 20 71
18 7122 l-3 7055 -32 65 c-17 36 -47 79 -65 97 -35 33 -9049 5379 -9115 5405
-42 17 -125 28 -163 22z m4399 -3304 l4311 -2555 0 -6737 0 -6738 -1105 0
c-732 0 -1105 3 -1105 10 0 6 34 124 76 263 331 1108 494 2015 566 3157 7 111
12 414 12 700 0 491 -7 691 -40 1075 -163 1944 -738 3783 -1712 5480 -675
1176 -1407 2051 -2417 2889 -210 175 -545 420 -755 554 -556 355 -1214 620
-1866 751 -331 67 -708 67 -1021 0 -146 -31 -255 -64 -733 -224 -485 -162
-650 -234 -829 -362 -231 -166 -437 -404 -564 -651 -25 -48 -133 -308 -241
-577 l-196 -490 -962 -480 c-528 -264 -987 -497 -1019 -517 -82 -52 -208 -176
-269 -264 -207 -300 -236 -694 -73 -1017 47 -95 965 -1472 1017 -1525 22 -24
64 -56 91 -70 45 -24 60 -27 160 -27 61 0 153 4 205 9 l95 8 -90 -94 c-188
-196 -318 -379 -435 -609 -40 -78 -149 -263 -244 -413 -284 -447 -419 -684
-586 -1029 -476 -988 -746 -1990 -842 -3127 -21 -246 -17 -1103 5 -1350 62
-672 165 -1205 357 -1841 38 -128 70 -239 70 -246 0 -11 -253 -13 -1440 -13
l-1440 0 0 6734 0 6733 4332 2586 c3909 2333 4334 2584 4354 2574 12 -7 1962
-1162 4333 -2567z m-4668 -1887 c48 -60 120 -157 161 -218 87 -128 489 -797
541 -901 88 -174 177 -424 217 -610 49 -228 52 -271 60 -874 6 -474 10 -591
24 -665 35 -187 78 -311 167 -485 241 -468 703 -801 1224 -879 417 -62 830 30
1183 265 356 237 610 613 703 1041 25 117 37 477 21 633 -6 52 -9 96 -7 98 5
5 220 -290 337 -463 1164 -1719 1892 -3767 2077 -5845 38 -427 45 -600 46
-1105 0 -856 -65 -1551 -221 -2350 -93 -475 -173 -791 -357 -1406 l-112 -376
-434 -6 c-239 -4 -786 -7 -1216 -7 l-782 0 -12 103 c-87 733 -441 1456 -976
1993 -390 391 -851 675 -1370 844 l-100 33 -215 270 c-118 148 -214 272 -213
276 1 4 21 38 44 76 283 465 231 1114 -120 1525 l-47 55 -73 363 c-40 199 -85
410 -102 467 -103 368 -317 727 -590 990 -228 220 -339 289 -996 618 l-543
272 0 503 c0 276 2 502 3 502 2 0 322 29 710 64 669 61 708 66 760 91 96 45
120 81 323 487 l187 373 5 85 c5 110 -19 179 -86 248 -74 75 -128 97 -242 97
-81 0 -103 -4 -145 -24 -94 -47 -122 -86 -269 -380 -75 -149 -138 -271 -139
-271 -12 0 -3201 -290 -3233 -294 l-41 -5 -186 279 -186 279 82 57 c262 184
465 486 543 810 52 217 47 514 -12 706 -4 14 94 67 555 297 308 154 575 294
593 310 19 16 46 51 60 78 15 26 121 286 238 577 116 291 223 552 237 580 109
217 336 437 548 532 75 33 922 317 1030 345 83 22 205 46 240 48 14 1 46 -31
106 -106z m1073 -77 c547 -183 956 -403 1476 -792 390 -291 631 -575 825 -969
180 -366 267 -726 268 -1110 0 -164 -2 -189 -26 -280 -160 -598 -795 -912
-1363 -672 -228 96 -430 297 -523 522 -75 178 -74 169 -82 790 -4 326 -12 600
-19 655 -52 418 -151 752 -325 1100 -40 80 -165 299 -278 488 -140 232 -201
342 -190 342 8 0 115 -33 237 -74z m-5297 -2995 c-9 -116 -29 -189 -82 -297
-30 -62 -65 -113 -109 -161 -60 -64 -171 -152 -180 -142 -2 2 -22 33 -45 69
-78 120 -90 235 -37 343 42 87 98 132 278 223 139 70 164 80 172 67 5 -9 6
-55 3 -102z m1875 -2963 c3 -530 3 -533 26 -579 55 -112 40 -102 733 -449 351
-176 669 -339 706 -361 299 -183 543 -486 663 -824 19 -56 66 -260 121 -535
49 -245 97 -465 106 -489 9 -25 46 -75 83 -115 155 -168 214 -303 213 -496 0
-195 -44 -292 -255 -555 -236 -295 -367 -412 -598 -529 -217 -111 -390 -155
-641 -163 -263 -8 -435 22 -649 113 -195 83 -332 178 -527 367 -148 143 -189
167 -294 175 -255 18 -431 -240 -325 -475 21 -46 55 -86 166 -194 373 -367
772 -569 1275 -645 132 -20 429 -22 560 -5 462 61 904 264 1212 555 39 36 74
66 79 65 5 0 107 -123 227 -274 145 -182 232 -283 261 -302 25 -17 105 -48
186 -72 350 -105 682 -277 960 -497 109 -87 347 -325 434 -434 304 -384 511
-863 579 -1343 l6 -37 -3866 2 -3866 3 -93 303 c-204 665 -299 1139 -361 1802
-22 233 -25 1024 -5 1250 89 1016 302 1844 702 2725 162 359 332 665 627 1130
105 165 225 368 267 450 42 83 107 193 144 245 86 122 290 326 412 412 107 76
308 182 420 223 63 23 279 83 302 85 4 0 9 -240 10 -532z"/>
<path d="M9075 13896 c-102 -33 -211 -117 -262 -204 -108 -184 -74 -427 81
-570 99 -91 201 -127 343 -120 82 5 103 10 168 42 182 90 279 273 254 476 -20
167 -141 315 -301 369 -72 24 -217 28 -283 7z"/>
<path d="M11825 10124 c-455 -69 -818 -324 -1015 -714 -102 -204 -141 -369
-141 -600 0 -280 62 -492 212 -727 58 -91 142 -177 1148 -1186 597 -599 1102
-1099 1122 -1112 94 -61 225 -69 324 -20 72 35 2219 2185 2292 2295 102 152
167 307 204 483 29 134 31 379 6 509 -106 533 -505 939 -1037 1054 -120 26
-410 27 -530 1 -176 -38 -316 -97 -471 -198 -74 -48 -148 -115 -349 -314
l-255 -254 -246 242 c-137 136 -281 267 -326 300 -148 105 -322 182 -508 223
-68 15 -366 27 -430 18z"/>
<path d="M8920 7119 c-168 -28 -322 -169 -364 -334 -77 -294 139 -577 441
-576 245 0 441 182 460 426 22 291 -246 533 -537 484z"/>
</g>
</svg>
